<svg xmlns="http://www.w3.org/2000/svg" version="1.1" xmlns:xlink="http://www.w3.org/1999/xlink" xmlns:svgjs="http://svgjs.com/svgjs" width="512" height="512" x="0" y="0" viewBox="0 0 511.9 511.9" style="enable-background:new 0 0 512 512" xml:space="preserve"><g><g xmlns="http://www.w3.org/2000/svg"><g><path d="m81.578 498.786c-18.576 6.454-38.776 7.247-57.739 2.463-14.151-3.57-20.757-19.891-13.412-32.485l265.789-455.693c3.076-5.274 9.852-7.058 15.134-3.985l18.943 11.023c5.282 3.073 7.07 9.841 3.994 15.115l-202.869 347.817c-4.866 8.342-7.848 17.645-8.74 27.259l-6.462 69.688c-.795 8.579-6.49 15.968-14.638 18.798z" fill="#AB695D" data-original="#ab695d"></path><path d="m494.344 100.01-135.956-12.563c-6.423-.593-12.638-2.581-18.212-5.825l-93.144-54.2c-5.282-3.073-12.057-1.289-15.134 3.985l-60.709 104.085c-3.076 5.274-1.288 12.041 3.994 15.115l93.144 54.2c5.574 3.243 10.371 7.664 14.055 12.952l77.996 111.936c3.56 5.109 10.628 6.26 15.66 2.589 71.098-51.869 118.177-132.586 128.285-219.944.715-6.183-3.773-11.757-9.979-12.33z" fill="#FAF7F7" data-original="#faf7f7"></path><g><path d="m494.344 100.01-57.75-5.336c-12.969 73.19-51.862 140.454-108.786 188.279l32.57 46.742c3.56 5.109 10.628 6.26 15.66 2.589 71.098-51.869 118.177-132.586 128.285-219.945.715-6.182-3.773-11.756-9.979-12.329z" fill="#DEDBEE" data-original="#dedbee"></path></g><g><path d="m494.344 100.01-22.522-2.081c-10.927 84.349-56.292 162.127-124.365 213.223l12.921 18.543c3.56 5.109 10.628 6.26 15.66 2.589 71.098-51.869 118.177-132.586 128.285-219.944.715-6.183-3.773-11.757-9.979-12.33z" fill="#E2DEE2" data-original="#e2dee2"></path></g></g><g><path d="m507.738 99.327c-3.175-3.912-7.686-6.322-12.704-6.785l-135.957-12.563c-5.299-.489-10.53-2.163-15.13-4.839l-33.045-19.229 9.862-16.909c5.104-8.751 2.053-20.282-6.7-25.375l-18.942-11.023c-8.843-5.146-20.231-2.146-25.385 6.688l-9.87 16.922-9.064-5.274c-8.845-5.147-20.231-2.146-25.384 6.688l-60.709 104.086c-5.104 8.751-2.053 20.282 6.7 25.376l9.05 5.266-111.718 191.541c-2.087 3.578-.878 8.17 2.7 10.257 3.791 1.982 7.21 1.082 10.257-2.7l111.726-191.554 25.106 14.609-113.592 194.754c-5.379 9.222-8.743 19.715-9.729 30.345l-6.461 69.688c-.527 5.687-4.308 10.556-9.632 12.406-17.189 5.973-35.669 6.761-53.442 2.276-9.241-2.332-13.511-13.302-8.769-21.434l49.804-85.388c2.087-3.578.878-8.17-2.7-10.257s-8.171-.878-10.257 2.7l-49.804 85.387c-9.743 16.703-.601 38.829 18.056 43.536 20.388 5.144 42.165 4.253 62.035-2.651 10.865-3.774 18.576-13.662 19.645-25.19l6.461-69.688c.786-8.467 3.465-16.826 7.75-24.172l113.6-194.767 33.058 19.236c4.598 2.676 8.635 6.396 11.674 10.757l77.996 111.936c5.875 8.43 18.016 10.353 26.233 4.36 52.658-38.416 93.629-93.812 115.366-155.983 1.367-3.91-.694-8.188-4.604-9.555-3.91-1.369-8.188.694-9.555 4.604-20.742 59.326-59.824 112.176-110.047 148.815-1.932 1.153-3.628.88-5.086-.817l-8.835-12.679c64.617-50.837 108.138-125.455 120.543-206.675l15.415 1.424c2.194.424 3.267 1.757 3.218 4-1.456 12.586-3.763 25.332-6.856 37.883-.991 4.022 1.466 8.086 5.487 9.077 4.024.992 8.086-1.465 9.077-5.487 3.244-13.164 5.664-26.538 7.192-39.749.583-5.024-.85-9.951-4.034-13.874zm-225.044-82.477c.99-1.697 3.181-2.272 4.883-1.281l18.943 11.023c1.772 1.263 2.201 2.881 1.288 4.854l-9.87 16.922-25.106-14.609zm66.418 283.558-60.577-86.937c-4.279-6.142-9.963-11.38-16.437-15.147l-93.144-54.2c-1.772-1.263-2.201-2.881-1.288-4.854l60.709-104.085c.99-1.697 3.181-2.272 4.883-1.281l93.144 54.2c6.473 3.767 13.837 6.122 21.294 6.811l105.588 9.756c-11.964 76.85-53.139 147.44-114.172 195.737z" fill="#000000" data-original="#000000"></path><path d="m331.807 103.635c-3.578-2.087-8.17-.879-10.257 2.7l-39.547 67.803c-2.087 3.578-.878 8.17 2.7 10.257 1.188.693 2.488 1.022 3.772 1.022 2.58 0 5.092-1.333 6.485-3.722l39.547-67.803c2.087-3.578.878-8.17-2.7-10.257z" fill="#000000" data-original="#000000"></path></g></g></g></svg>